first trial
nRows=32
nColumns=38

# SIMM Motion File Header:
name Sujet_05_velo_60.mvnx
datacolumns 38
datarows 32
otherdata 1
range 8.0500 8.5670
endheader
time pelvis_tilt  pelvis_list  pelvis_rotation  pelvis_tx  pelvis_ty  pelvis_tz  hip_flexion_r  hip_adduction_r  hip_rotation_r  knee_angle_r  ankle_angle_r  subtalar_angle_r  mtp_angle_r  hip_flexion_l  hip_adduction_l  hip_rotation_l  knee_angle_l  ankle_angle_l  subtalar_angle_l  mtp_angle_l  lumbar_extension  lumbar_bending  lumbar_rotation  arm_flex_r  arm_add_r  arm_rot_r  elbow_flex_r  pro_sup_r  wrist_flex_r  wrist_dev_r  arm_flex_l  arm_add_l  arm_rot_l  elbow_flex_l  pro_sup_l  wrist_flex_l  wrist_dev_l
8.0500	-4.2484	-1.5426	-89.3816	0.0000	1.2500	-0.0000	77.5854	4.6468	-6.9602	82.4108	-9.2835	1.8434	0.0000	38.2652	-1.7488	-11.4918	55.3994	-20.0130	11.2211	0.0000	-23.2959	1.8134	0.0513	88.4613	-9.4656	23.9291	4.1315	64.0654	-57.1970	-35.8149	93.6473	-12.2261	22.7405	0.1395	59.0908	-41.8118	-22.7905	
8.0670	-4.1360	-1.2131	-89.1848	0.0000	1.2500	-0.0000	75.8148	4.3899	-7.3056	79.1299	-9.5383	2.1443	0.0000	39.8306	-1.3900	-11.2950	59.4560	-20.2502	11.3295	-0.0000	-23.2881	1.6256	-0.1024	88.2831	-9.4382	23.8005	4.0611	63.9537	-57.2178	-35.8398	93.5973	-12.2752	22.8283	0.1524	59.2195	-41.7502	-22.7354	
8.0830	-4.0206	-0.8672	-88.9381	0.0000	1.2500	-0.0000	73.7543	4.0572	-7.6720	75.6640	-9.9427	2.5558	-0.0000	41.5021	-0.9996	-11.1985	63.5397	-20.4395	11.4096	0.0000	-23.2745	1.4358	-0.2746	88.0872	-9.4270	23.6241	3.9969	63.8515	-57.2372	-35.8730	93.5456	-12.3152	22.9368	0.1782	59.3786	-41.6912	-22.6856	
8.1000	-3.9250	-0.5083	-88.6559	0.0000	1.2500	-0.0000	71.4820	3.7046	-8.0540	72.0593	-10.4524	2.9760	-0.0000	43.2625	-0.5975	-11.1086	67.5568	-20.4257	11.4477	-0.0000	-23.2507	1.2342	-0.4524	87.8544	-9.4548	23.4452	3.9600	63.7090	-57.2559	-35.9262	93.5003	-12.3199	23.0699	0.1923	59.5426	-41.6409	-22.6327	
8.1170	-3.8589	-0.1408	-88.3327	0.0000	1.2500	-0.0000	68.9899	3.3354	-8.4827	68.3014	-10.9982	3.4146	-0.0000	45.1227	-0.1889	-11.0240	71.4871	-20.1888	11.4586	0.0000	-23.2151	1.0174	-0.6326	87.5803	-9.5380	23.2905	3.9564	63.4994	-57.2737	-36.0085	93.4736	-12.2752	23.2448	0.1824	59.6961	-41.6038	-22.5701	
8.1330	-3.8117	0.2400	-87.9738	0.0000	1.2500	-0.0000	66.2873	2.9533	-8.9441	64.4010	-11.6517	3.8636	-0.0000	47.0721	0.2329	-10.9536	75.3443	-19.7507	11.4382	0.0000	-23.1701	0.7886	-0.8184	87.2679	-9.6587	23.1325	3.9804	63.2497	-57.2908	-36.1107	93.4521	-12.1951	23.4439	0.1609	59.8546	-41.5755	-22.5043	
8.1500	-3.7750	0.6451	-87.6091	0.0000	1.2500	-0.0000	63.4783	2.6066	-9.3546	60.4439	-12.5728	4.1988	0.0000	49.0621	0.6727	-10.8155	79.0762	-19.0207	11.3508	0.0000	-23.1167	0.5481	-1.0055	86.9094	-9.7878	22.9353	4.0349	62.9907	-57.3087	-36.2168	93.4062	-12.0959	23.6186	0.1396	60.0387	-41.5492	-22.4452	
8.1670	-3.7484	1.0905	-87.2547	0.0000	1.2500	-0.0000	60.5600	2.3138	-9.7320	56.3808	-13.9216	4.3700	0.0000	51.0849	1.1295	-10.5668	82.7085	-17.8283	11.1874	-0.0000	-23.0532	0.2858	-1.1906	86.4861	-9.9240	22.6752	4.1360	62.7278	-57.3292	-36.3222	93.3314	-11.9841	23.7472	0.1329	60.2627	-41.5215	-22.3955	
8.1830	-3.7317	1.5605	-86.8945	0.0000	1.2500	-0.0000	57.5354	2.0479	-10.0611	52.2586	-15.5289	4.4486	0.0000	53.1502	1.6105	-10.2559	86.1988	-16.3444	10.9593	0.0000	-22.9817	0.0115	-1.3769	86.0158	-10.0657	22.3751	4.2675	62.4555	-57.3506	-36.4315	93.2321	-11.8539	23.8514	0.1259	60.5122	-41.4956	-22.3526	
8.2000	-3.7165	2.0185	-86.5114	0.0000	1.2500	-0.0000	54.5158	1.7717	-10.2020	48.3181	-17.0597	4.4897	-0.0000	55.2362	2.1357	-9.9365	89.3937	-14.9885	10.6600	-0.0000	-22.9083	-0.2448	-1.5705	85.5462	-10.1846	22.0700	4.3835	62.1885	-57.3693	-36.5430	93.0916	-11.7045	23.9486	0.0864	60.7637	-41.4753	-22.3188	
8.2170	-3.6978	2.4519	-86.0879	0.0000	1.2500	-0.0000	51.4993	1.4635	-10.0478	44.6199	-18.4326	4.5188	0.0000	57.3432	2.7227	-9.6004	92.2793	-13.9131	10.2549	0.0000	-22.8331	-0.4703	-1.7790	85.0987	-10.2683	21.7749	4.4677	61.9310	-57.3849	-36.6611	92.8858	-11.5260	24.0546	-0.0199	61.0027	-41.4658	-22.3029	
8.2340	-3.6802	2.8733	-85.6416	0.0000	1.2500	-0.0000	48.4836	1.1159	-9.7119	41.1186	-19.7284	4.5158	-0.0000	59.4711	3.3582	-9.2634	94.8729	-12.9577	9.7711	-0.0000	-22.7558	-0.6780	-1.9948	84.6530	-10.3296	21.4757	4.5363	61.6788	-57.3978	-36.7814	92.6384	-11.3289	24.1533	-0.1586	61.2435	-41.4617	-22.2961	
8.2500	-3.6709	3.2840	-85.2099	0.0000	1.2500	-0.0000	45.5801	0.7188	-9.3813	37.9018	-20.8592	4.4495	-0.0000	61.5968	4.0086	-9.0114	97.0760	-12.0756	9.2961	-0.0000	-22.6816	-0.8765	-2.2017	84.1946	-10.3796	21.1642	4.5920	61.4332	-57.4050	-36.8884	92.4048	-11.1425	24.2144	-0.2587	61.5069	-41.4506	-22.2749	
8.2670	-3.6774	3.6917	-84.7893	0.0000	1.2500	-0.0000	42.7528	0.2576	-9.0773	34.8929	-21.7969	4.2903	-0.0000	63.7341	4.6808	-8.8899	98.8518	-11.2574	8.8399	-0.0000	-22.6086	-1.0710	-2.3997	83.6987	-10.4134	20.8291	4.6368	61.1817	-57.4060	-36.9786	92.2096	-10.9753	24.1892	-0.2808	61.8450	-41.4312	-22.2248	
8.2830	-3.6927	4.0889	-84.3831	0.0000	1.2500	-0.0000	40.0376	-0.2502	-8.7786	32.1709	-22.5713	4.0575	0.0000	65.8710	5.3567	-8.8525	100.2426	-10.5157	8.3911	0.0000	-22.5383	-1.2560	-2.5888	83.1906	-10.4352	20.4819	4.6683	60.9366	-57.4013	-37.0555	92.0290	-10.8186	24.1266	-0.2647	62.2057	-41.4047	-22.1602	
8.3000	-3.7031	4.4526	-84.0378	0.0000	1.2500	-0.0000	37.6555	-0.7451	-8.5907	30.0509	-23.1815	3.7878	-0.0000	67.9445	5.9626	-8.8340	101.2697	-9.8427	8.0080	0.0000	-22.4811	-1.4238	-2.7525	82.7301	-10.4715	20.1475	4.6824	60.7374	-57.3896	-37.1139	91.8465	-10.6744	24.1426	-0.2585	62.4532	-41.3620	-22.1006	
8.3160	-3.6983	4.7902	-83.7725	0.0000	1.2500	-0.0000	35.6410	-1.2129	-8.5533	28.5817	-23.6211	3.4461	-0.0000	69.9811	6.4720	-8.7981	101.9604	-9.2559	7.7217	0.0000	-22.4392	-1.5814	-2.8850	82.3236	-10.5391	19.8167	4.6687	60.6034	-57.3696	-37.1515	91.6400	-10.5432	24.3199	-0.2796	62.5067	-41.2843	-22.0492	
8.3330	-3.6905	5.0944	-83.5683	0.0000	1.2500	-0.0000	33.9600	-1.6570	-8.5998	27.7103	-23.8963	3.0615	-0.0000	71.9525	6.9118	-8.7623	102.2909	-8.7403	7.4936	-0.0000	-22.4095	-1.7212	-2.9922	81.9643	-10.6243	19.4979	4.6376	60.5153	-57.3426	-37.1706	91.4316	-10.4236	24.5760	-0.3098	62.4469	-41.1906	-22.0029	
8.3500	-3.7006	5.3192	-83.4152	0.0000	1.2500	-0.0000	32.7313	-2.0413	-8.6606	27.5986	-24.0249	2.7685	0.0000	73.7110	7.2949	-8.7318	102.2055	-8.2376	7.2811	-0.0000	-22.3931	-1.8142	-3.0751	81.6925	-10.7098	19.2426	4.6166	60.4552	-57.3113	-37.1720	91.2723	-10.3141	24.7794	-0.3443	62.3802	-41.1283	-21.9722	
8.3670	-3.7456	5.4511	-83.3135	0.0000	1.2500	-0.0000	32.0187	-2.3731	-8.7206	28.3524	-23.9539	2.6244	0.0000	75.2521	7.6282	-8.6787	101.6716	-7.7334	7.0850	0.0000	-22.3925	-1.8498	-3.1366	81.5423	-10.7878	19.0719	4.6180	60.4220	-57.2727	-37.1553	91.1844	-10.2185	24.8819	-0.3833	62.3435	-41.1192	-21.9634	
8.3830	-3.8094	5.5038	-83.2628	0.0000	1.2500	-0.0000	31.7589	-2.6466	-8.7733	29.8663	-23.7361	2.5693	0.0000	76.5767	7.9119	-8.6135	100.7242	-7.2412	6.9112	-0.0000	-22.4046	-1.8383	-3.1740	81.4801	-10.8685	18.9651	4.6295	60.4168	-57.2297	-37.1210	91.1462	-10.1323	24.9316	-0.4266	62.3000	-41.1416	-21.9701	
8.4000	-3.8638	5.4739	-83.2529	0.0000	1.2500	-0.0000	31.8795	-2.8081	-8.7614	31.9874	-23.5476	2.5613	0.0000	77.5447	8.1485	-8.5988	99.4078	-6.7451	6.7394	0.0000	-22.4236	-1.7816	-3.1804	81.4447	-10.9609	18.9110	4.6418	60.4249	-57.1933	-37.0707	91.1421	-10.0421	24.9414	-0.4693	62.2460	-41.1778	-21.9840	
8.4170	-3.9063	5.3565	-83.2780	0.0000	1.2500	-0.0000	32.4191	-2.8243	-8.6767	34.7849	-23.4178	2.5980	-0.0000	78.1140	8.3444	-8.6494	97.6966	-6.2117	6.5403	-0.0000	-22.4465	-1.6780	-3.1513	81.4060	-11.0756	18.9166	4.6540	60.4297	-57.1687	-37.0078	91.1767	-9.9345	24.8868	-0.5081	62.2007	-41.2267	-22.0033	
8.4330	-3.9391	5.1562	-83.3440	0.0000	1.2500	-0.0000	33.3395	-2.7274	-8.5305	38.1932	-23.3167	2.6709	0.0000	78.3258	8.4932	-8.7430	95.6149	-5.6782	6.3750	-0.0000	-22.4767	-1.5295	-3.0910	81.3944	-11.2020	18.9751	4.6670	60.4478	-57.1508	-36.9290	91.2460	-9.8231	24.7923	-0.5464	62.1450	-41.2895	-22.0298	
8.4500	-3.9409	4.8839	-83.4593	0.0000	1.2500	-0.0000	34.4530	-2.5600	-8.2982	41.8556	-23.3301	2.7328	-0.0000	78.1661	8.5746	-8.8888	93.2805	-5.2350	6.3583	0.0000	-22.5171	-1.3437	-3.0063	81.4391	-11.3162	19.0553	4.6742	60.5136	-57.1355	-36.8266	91.3209	-9.7346	24.7435	-0.5885	62.0179	-41.3519	-22.0602	
8.4660	-3.8962	4.5251	-83.6303	0.0000	1.2500	-0.0000	35.7350	-2.3109	-7.9456	45.7364	-23.5518	2.7832	0.0000	77.6148	8.5876	-9.1124	90.7151	-4.8879	6.5527	-0.0000	-22.5768	-1.1148	-2.8941	81.5736	-11.4189	19.1596	4.6839	60.6306	-57.1249	-36.6869	91.4164	-9.6711	24.8129	-0.6414	61.7673	-41.4100	-22.0943	
8.4830	-3.8192	4.0945	-83.8499	0.0000	1.2500	-0.0000	37.2106	-1.9828	-7.5231	49.8664	-23.8881	2.8245	0.0000	76.6943	8.5308	-9.3938	87.8911	-4.6307	6.9001	0.0000	-22.6479	-0.8488	-2.7575	81.7645	-11.5083	19.2858	4.6885	60.7956	-57.1169	-36.5236	91.5171	-9.6307	24.9279	-0.6977	61.4453	-41.4676	-22.1324	
8.5000	-3.7322	3.6450	-84.1049	0.0000	1.2500	-0.0000	38.7666	-1.6421	-7.1267	53.9854	-24.1439	2.8151	-0.0000	75.4553	8.3846	-9.6766	84.8524	-4.5352	7.3117	-0.0000	-22.7082	-0.5708	-2.6130	81.9406	-11.5580	19.3957	4.6573	61.0339	-57.1007	-36.3696	91.5486	-9.6336	24.9568	-0.7407	61.1476	-41.5222	-22.1725	
8.5170	-3.6308	3.1840	-84.3928	0.0000	1.2500	-0.0000	40.3642	-1.3070	-6.7632	58.0390	-24.2704	2.7282	0.0000	73.8832	8.1403	-9.9525	81.5882	-4.6239	7.7576	-0.0000	-22.7519	-0.2838	-2.4681	82.0740	-11.5495	19.4619	4.5752	61.3786	-57.0680	-36.2295	91.4684	-9.7045	24.8379	-0.7476	60.9186	-41.5645	-22.2030	
8.5330	-3.5186	2.7046	-84.7158	0.0000	1.2500	-0.0000	42.0425	-0.9593	-6.4319	62.0764	-24.3161	2.5843	-0.0000	71.9961	7.8051	-10.2488	78.1014	-4.8737	8.2504	0.0000	-22.7857	0.0156	-2.3160	82.1917	-11.5014	19.5107	4.4575	61.7966	-57.0269	-36.0988	91.3177	-9.8170	24.6325	-0.7418	60.7138	-41.6037	-22.2357	
8.5500	-3.4311	2.2365	-85.0695	0.0000	1.2500	-0.0000	43.8040	-0.6186	-6.2097	65.9980	-24.2317	2.4076	0.0000	69.8930	7.3848	-10.5633	74.4618	-5.2891	8.7562	0.0000	-22.8054	0.3122	-2.1511	82.3046	-11.4428	19.5840	4.3187	62.2133	-56.9919	-35.9963	91.1482	-9.9143	24.3934	-0.7758	60.4950	-41.6646	-22.3038	
8.5670	-3.3817	1.7943	-85.4664	0.0000	1.2500	-0.0000	45.6540	-0.3067	-6.1649	69.7881	-24.0101	2.1719	-0.0000	67.5853	6.8753	-10.9135	70.6773	-5.8836	9.2770	0.0000	-22.8081	0.5992	-1.9673	82.4245	-11.3778	19.7033	4.1433	62.6034	-56.9687	-35.9328	90.9791	-9.9705	24.1255	-0.8834	60.2545	-41.7590	-22.4257	
